<?xml version="1.0" encoding="UTF-8" standalone="no"?>
<!DOCTYPE svg PUBLIC "-//W3C//DTD SVG 1.1//EN"
 "http://www.w3.org/Graphics/SVG/1.1/DTD/svg11.dtd">
<!-- Generated by graphviz version 2.38.0 (20140413.2041)
 -->
<!-- Title: G Pages: 1 -->
<svg width="909pt" height="466pt"
 viewBox="0.00 0.00 909.04 466.00" xmlns="http://www.w3.org/2000/svg" xmlns:xlink="http://www.w3.org/1999/xlink">
<g id="graph0" class="graph" transform="scale(1 1) rotate(0) translate(4 462)">
<title>G</title>
<polygon fill="white" stroke="none" points="-4,4 -4,-462 905.038,-462 905.038,4 -4,4"/>
<g id="clust1" class="cluster"><title>cluster_Global</title>
<path fill="none" stroke="gray" d="M750.038,-8C750.038,-8 881.038,-8 881.038,-8 887.038,-8 893.038,-14 893.038,-20 893.038,-20 893.038,-438 893.038,-438 893.038,-444 887.038,-450 881.038,-450 881.038,-450 750.038,-450 750.038,-450 744.038,-450 738.038,-444 738.038,-438 738.038,-438 738.038,-20 738.038,-20 738.038,-14 744.038,-8 750.038,-8"/>
<text text-anchor="middle" x="815.538" y="-437.2" font-family="Times New Roman,serif" font-size="11.00" fill="gray">Global</text>
</g>
<g id="clust2" class="cluster"><title>cluster_\Slothsoft</title>
<path fill="none" stroke="gray" d="M758.038,-16C758.038,-16 873.038,-16 873.038,-16 879.038,-16 885.038,-22 885.038,-28 885.038,-28 885.038,-410 885.038,-410 885.038,-416 879.038,-422 873.038,-422 873.038,-422 758.038,-422 758.038,-422 752.038,-422 746.038,-416 746.038,-410 746.038,-410 746.038,-28 746.038,-28 746.038,-22 752.038,-16 758.038,-16"/>
<text text-anchor="middle" x="815.538" y="-409.2" font-family="Times New Roman,serif" font-size="11.00" fill="gray">Slothsoft</text>
</g>
<g id="clust3" class="cluster"><title>cluster_\Slothsoft\Therapy</title>
<path fill="none" stroke="gray" d="M766.038,-24C766.038,-24 865.038,-24 865.038,-24 871.038,-24 877.038,-30 877.038,-36 877.038,-36 877.038,-382 877.038,-382 877.038,-388 871.038,-394 865.038,-394 865.038,-394 766.038,-394 766.038,-394 760.038,-394 754.038,-388 754.038,-382 754.038,-382 754.038,-36 754.038,-36 754.038,-30 760.038,-24 766.038,-24"/>
<text text-anchor="middle" x="815.538" y="-381.2" font-family="Times New Roman,serif" font-size="11.00" fill="gray">Therapy</text>
</g>
<g id="clust4" class="cluster"><title>cluster_\Slothsoft\Therapy\Assets</title>
<path fill="none" stroke="gray" d="M774.038,-294C774.038,-294 857.038,-294 857.038,-294 863.038,-294 869.038,-300 869.038,-306 869.038,-306 869.038,-354 869.038,-354 869.038,-360 863.038,-366 857.038,-366 857.038,-366 774.038,-366 774.038,-366 768.038,-366 762.038,-360 762.038,-354 762.038,-354 762.038,-306 762.038,-306 762.038,-300 768.038,-294 774.038,-294"/>
<text text-anchor="middle" x="815.538" y="-353.2" font-family="Times New Roman,serif" font-size="11.00" fill="gray">Assets</text>
</g>
<!-- \\Slothsoft\\Therapy\\Assets\\FormBuilder -->
<g id="node1" class="node"><title>\\Slothsoft\\Therapy\\Assets\\FormBuilder</title>
<polygon fill="none" stroke="black" points="861.038,-338 770.038,-338 770.038,-302 861.038,-302 861.038,-338"/>
<text text-anchor="middle" x="815.538" y="-317.2" font-family="Courier,monospace" font-size="11.00">FormBuilder</text>
</g>
<!-- \\Slothsoft\\Farah\\Module\\Asset\\ExecutableBuilderStrategy\\ExecutableBuilderStrategyInterface -->
<g id="node8" class="node"><title>\\Slothsoft\\Farah\\Module\\Asset\\ExecutableBuilderStrategy\\ExecutableBuilderStrategyInterface</title>
<ellipse fill="none" stroke="black" cx="349.019" cy="-320" rx="349.038" ry="18"/>
<text text-anchor="middle" x="349.019" y="-316.3" font-family="Times New Roman,serif" font-size="14.00" fill="gray">\Slothsoft\Farah\Module\Asset\ExecutableBuilderStrategy\ExecutableBuilderStrategyInterface</text>
</g>
<!-- \\Slothsoft\\Therapy\\Assets\\FormBuilder&#45;&gt;\\Slothsoft\\Farah\\Module\\Asset\\ExecutableBuilderStrategy\\ExecutableBuilderStrategyInterface -->
<g id="edge2" class="edge"><title>\\Slothsoft\\Therapy\\Assets\\FormBuilder&#45;&gt;\\Slothsoft\\Farah\\Module\\Asset\\ExecutableBuilderStrategy\\ExecutableBuilderStrategyInterface</title>
<path fill="none" stroke="black" stroke-dasharray="1,5" d="M769.998,-320C753.01,-320 732.019,-320 708.559,-320"/>
<polygon fill="none" stroke="black" points="708.357,-316.5 698.357,-320 708.357,-323.5 708.357,-316.5"/>
</g>
<!-- \\Slothsoft\\Therapy\\Rating -->
<g id="node2" class="node"><title>\\Slothsoft\\Therapy\\Rating</title>
<polygon fill="none" stroke="black" points="844.038,-284 787.038,-284 787.038,-248 844.038,-248 844.038,-284"/>
<text text-anchor="middle" x="815.538" y="-263.2" font-family="Courier,monospace" font-size="11.00">Rating</text>
</g>
<!-- \\Slothsoft\\Therapy\\Goal -->
<g id="node3" class="node"><title>\\Slothsoft\\Therapy\\Goal</title>
<polygon fill="none" stroke="black" points="842.538,-230 788.538,-230 788.538,-194 842.538,-194 842.538,-230"/>
<text text-anchor="middle" x="815.538" y="-209.2" font-family="Courier,monospace" font-size="11.00">Goal</text>
</g>
<!-- \\Slothsoft\\Therapy\\Clinic -->
<g id="node4" class="node"><title>\\Slothsoft\\Therapy\\Clinic</title>
<polygon fill="none" stroke="black" points="844.038,-176 787.038,-176 787.038,-140 844.038,-140 844.038,-176"/>
<text text-anchor="middle" x="815.538" y="-155.2" font-family="Courier,monospace" font-size="11.00">Clinic</text>
</g>
<!-- \\Slothsoft\\Core\\IO\\Writable\\DOMWriterInterface -->
<g id="node7" class="node"><title>\\Slothsoft\\Core\\IO\\Writable\\DOMWriterInterface</title>
<ellipse fill="none" stroke="black" cx="349.019" cy="-158" rx="190.366" ry="18"/>
<text text-anchor="middle" x="349.019" y="-154.3" font-family="Times New Roman,serif" font-size="14.00" fill="gray">\Slothsoft\Core\IO\Writable\DOMWriterInterface</text>
</g>
<!-- \\Slothsoft\\Therapy\\Clinic&#45;&gt;\\Slothsoft\\Core\\IO\\Writable\\DOMWriterInterface -->
<g id="edge1" class="edge"><title>\\Slothsoft\\Therapy\\Clinic&#45;&gt;\\Slothsoft\\Core\\IO\\Writable\\DOMWriterInterface</title>
<path fill="none" stroke="black" stroke-dasharray="1,5" d="M786.871,-158C740.041,-158 641.272,-158 549.478,-158"/>
<polygon fill="none" stroke="black" points="549.475,-154.5 539.475,-158 549.475,-161.5 549.475,-154.5"/>
</g>
<!-- \\Slothsoft\\Therapy\\Goals -->
<g id="node5" class="node"><title>\\Slothsoft\\Therapy\\Goals</title>
<polygon fill="none" stroke="black" points="842.538,-122 788.538,-122 788.538,-86 842.538,-86 842.538,-122"/>
<text text-anchor="middle" x="815.538" y="-101.2" font-family="Courier,monospace" font-size="11.00">Goals</text>
</g>
<!-- \\Slothsoft\\Therapy\\Patient -->
<g id="node6" class="node"><title>\\Slothsoft\\Therapy\\Patient</title>
<polygon fill="none" stroke="black" points="847.538,-68 783.538,-68 783.538,-32 847.538,-32 847.538,-68"/>
<text text-anchor="middle" x="815.538" y="-47.2" font-family="Courier,monospace" font-size="11.00">Patient</text>
</g>
</g>
</svg>
