<?xml version="1.0" encoding="UTF-8" standalone="no"?>
<!DOCTYPE svg PUBLIC "-//W3C//DTD SVG 1.1//EN"
 "http://www.w3.org/Graphics/SVG/1.1/DTD/svg11.dtd">
<!-- Generated by graphviz version 2.38.0 (20140413.2041)
 -->
<!-- Title: G Pages: 1 -->
<svg width="612pt" height="466pt"
 viewBox="0.00 0.00 611.87 466.00" xmlns="http://www.w3.org/2000/svg" xmlns:xlink="http://www.w3.org/1999/xlink">
<g id="graph0" class="graph" transform="scale(1 1) rotate(0) translate(4 462)">
<title>G</title>
<polygon fill="white" stroke="none" points="-4,4 -4,-462 607.866,-462 607.866,4 -4,4"/>
<g id="clust1" class="cluster"><title>cluster_Global</title>
<path fill="none" stroke="gray" d="M432.866,-8C432.866,-8 583.866,-8 583.866,-8 589.866,-8 595.866,-14 595.866,-20 595.866,-20 595.866,-438 595.866,-438 595.866,-444 589.866,-450 583.866,-450 583.866,-450 432.866,-450 432.866,-450 426.866,-450 420.866,-444 420.866,-438 420.866,-438 420.866,-20 420.866,-20 420.866,-14 426.866,-8 432.866,-8"/>
<text text-anchor="middle" x="508.366" y="-437.2" font-family="Times New Roman,serif" font-size="11.00" fill="gray">Global</text>
</g>
<g id="clust2" class="cluster"><title>cluster_\Slothsoft</title>
<path fill="none" stroke="gray" d="M440.866,-16C440.866,-16 575.866,-16 575.866,-16 581.866,-16 587.866,-22 587.866,-28 587.866,-28 587.866,-410 587.866,-410 587.866,-416 581.866,-422 575.866,-422 575.866,-422 440.866,-422 440.866,-422 434.866,-422 428.866,-416 428.866,-410 428.866,-410 428.866,-28 428.866,-28 428.866,-22 434.866,-16 440.866,-16"/>
<text text-anchor="middle" x="508.366" y="-409.2" font-family="Times New Roman,serif" font-size="11.00" fill="gray">Slothsoft</text>
</g>
<g id="clust3" class="cluster"><title>cluster_\Slothsoft\Therapy</title>
<path fill="none" stroke="gray" d="M448.866,-24C448.866,-24 567.866,-24 567.866,-24 573.866,-24 579.866,-30 579.866,-36 579.866,-36 579.866,-382 579.866,-382 579.866,-388 573.866,-394 567.866,-394 567.866,-394 448.866,-394 448.866,-394 442.866,-394 436.866,-388 436.866,-382 436.866,-382 436.866,-36 436.866,-36 436.866,-30 442.866,-24 448.866,-24"/>
<text text-anchor="middle" x="508.366" y="-381.2" font-family="Times New Roman,serif" font-size="11.00" fill="gray">Therapy</text>
</g>
<g id="clust4" class="cluster"><title>cluster_\Slothsoft\Therapy\Assets</title>
<path fill="none" stroke="gray" d="M456.866,-294C456.866,-294 559.866,-294 559.866,-294 565.866,-294 571.866,-300 571.866,-306 571.866,-306 571.866,-354 571.866,-354 571.866,-360 565.866,-366 559.866,-366 559.866,-366 456.866,-366 456.866,-366 450.866,-366 444.866,-360 444.866,-354 444.866,-354 444.866,-306 444.866,-306 444.866,-300 450.866,-294 456.866,-294"/>
<text text-anchor="middle" x="508.366" y="-353.2" font-family="Times New Roman,serif" font-size="11.00" fill="gray">Assets</text>
</g>
<!-- \\Slothsoft\\Therapy\\Assets\\FormController -->
<g id="node1" class="node"><title>\\Slothsoft\\Therapy\\Assets\\FormController</title>
<polygon fill="none" stroke="black" points="563.866,-338 452.866,-338 452.866,-302 563.866,-302 563.866,-338"/>
<text text-anchor="middle" x="508.366" y="-317.2" font-family="Courier,monospace" font-size="11.00">FormController</text>
</g>
<!-- \\Slothsoft\\Farah\\Module\\Node\\Asset\\AssetBase -->
<g id="node8" class="node"><title>\\Slothsoft\\Farah\\Module\\Node\\Asset\\AssetBase</title>
<ellipse fill="none" stroke="black" cx="190.433" cy="-320" rx="185.467" ry="18"/>
<text text-anchor="middle" x="190.433" y="-316.3" font-family="Times New Roman,serif" font-size="14.00" fill="gray">\Slothsoft\Farah\Module\Node\Asset\AssetBase</text>
</g>
<!-- \\Slothsoft\\Therapy\\Assets\\FormController&#45;&gt;\\Slothsoft\\Farah\\Module\\Node\\Asset\\AssetBase -->
<g id="edge2" class="edge"><title>\\Slothsoft\\Therapy\\Assets\\FormController&#45;&gt;\\Slothsoft\\Farah\\Module\\Node\\Asset\\AssetBase</title>
<path fill="none" stroke="black" d="M452.696,-320C433.293,-320 410.187,-320 385.862,-320"/>
<polygon fill="none" stroke="black" points="385.744,-316.5 375.744,-320 385.744,-323.5 385.744,-316.5"/>
</g>
<!-- \\Slothsoft\\Therapy\\Rating -->
<g id="node2" class="node"><title>\\Slothsoft\\Therapy\\Rating</title>
<polygon fill="none" stroke="black" points="536.866,-284 479.866,-284 479.866,-248 536.866,-248 536.866,-284"/>
<text text-anchor="middle" x="508.366" y="-263.2" font-family="Courier,monospace" font-size="11.00">Rating</text>
</g>
<!-- \\Slothsoft\\Therapy\\Goal -->
<g id="node3" class="node"><title>\\Slothsoft\\Therapy\\Goal</title>
<polygon fill="none" stroke="black" points="535.366,-230 481.366,-230 481.366,-194 535.366,-194 535.366,-230"/>
<text text-anchor="middle" x="508.366" y="-209.2" font-family="Courier,monospace" font-size="11.00">Goal</text>
</g>
<!-- \\Slothsoft\\Therapy\\Clinic -->
<g id="node4" class="node"><title>\\Slothsoft\\Therapy\\Clinic</title>
<polygon fill="none" stroke="black" points="536.866,-176 479.866,-176 479.866,-140 536.866,-140 536.866,-176"/>
<text text-anchor="middle" x="508.366" y="-155.2" font-family="Courier,monospace" font-size="11.00">Clinic</text>
</g>
<!-- \\Slothsoft\\Core\\IO\\Writable\\DOMWriterInterface -->
<g id="node7" class="node"><title>\\Slothsoft\\Core\\IO\\Writable\\DOMWriterInterface</title>
<ellipse fill="none" stroke="black" cx="190.433" cy="-158" rx="190.366" ry="18"/>
<text text-anchor="middle" x="190.433" y="-154.3" font-family="Times New Roman,serif" font-size="14.00" fill="gray">\Slothsoft\Core\IO\Writable\DOMWriterInterface</text>
</g>
<!-- \\Slothsoft\\Therapy\\Clinic&#45;&gt;\\Slothsoft\\Core\\IO\\Writable\\DOMWriterInterface -->
<g id="edge1" class="edge"><title>\\Slothsoft\\Therapy\\Clinic&#45;&gt;\\Slothsoft\\Core\\IO\\Writable\\DOMWriterInterface</title>
<path fill="none" stroke="black" stroke-dasharray="1,5" d="M479.606,-158C458.159,-158 426.341,-158 391.583,-158"/>
<polygon fill="none" stroke="black" points="391.211,-154.5 381.211,-158 391.211,-161.5 391.211,-154.5"/>
</g>
<!-- \\Slothsoft\\Therapy\\Goals -->
<g id="node5" class="node"><title>\\Slothsoft\\Therapy\\Goals</title>
<polygon fill="none" stroke="black" points="535.366,-122 481.366,-122 481.366,-86 535.366,-86 535.366,-122"/>
<text text-anchor="middle" x="508.366" y="-101.2" font-family="Courier,monospace" font-size="11.00">Goals</text>
</g>
<!-- \\Slothsoft\\Therapy\\Patient -->
<g id="node6" class="node"><title>\\Slothsoft\\Therapy\\Patient</title>
<polygon fill="none" stroke="black" points="540.366,-68 476.366,-68 476.366,-32 540.366,-32 540.366,-68"/>
<text text-anchor="middle" x="508.366" y="-47.2" font-family="Courier,monospace" font-size="11.00">Patient</text>
</g>
</g>
</svg>
